<mxfile host="app.diagrams.net" agent="Mozilla/5.0 (Windows NT 10.0; Win64; x64) AppleWebKit/537.36 (KHTML, like Gecko) Chrome/131.0.0.0 Safari/537.36 Edg/131.0.0.0" version="26.0.5">
  <diagram name="Page-1" id="58cdce13-f638-feb5-8d6f-7d28b1aa9fa0">
    <mxGraphModel dx="916" dy="741" grid="1" gridSize="10" guides="1" tooltips="1" connect="1" arrows="1" fold="1" page="1" pageScale="1" pageWidth="1100" pageHeight="850" background="none" math="0" shadow="0">
      <root>
        <mxCell id="0" />
        <mxCell id="1" parent="0" />
        <mxCell id="JLNntl-zKEBdCk4uTLD9-18" style="edgeStyle=orthogonalEdgeStyle;rounded=0;orthogonalLoop=1;jettySize=auto;html=1;entryX=0.5;entryY=0;entryDx=0;entryDy=0;" edge="1" parent="1" source="JLNntl-zKEBdCk4uTLD9-1" target="JLNntl-zKEBdCk4uTLD9-17">
          <mxGeometry relative="1" as="geometry" />
        </mxCell>
        <mxCell id="JLNntl-zKEBdCk4uTLD9-33" value="Create Account" style="edgeLabel;html=1;align=center;verticalAlign=middle;resizable=0;points=[];" vertex="1" connectable="0" parent="JLNntl-zKEBdCk4uTLD9-18">
          <mxGeometry x="-0.2548" y="3" relative="1" as="geometry">
            <mxPoint x="18" y="33" as="offset" />
          </mxGeometry>
        </mxCell>
        <mxCell id="JLNntl-zKEBdCk4uTLD9-24" style="edgeStyle=orthogonalEdgeStyle;rounded=0;orthogonalLoop=1;jettySize=auto;html=1;entryX=0.25;entryY=0;entryDx=0;entryDy=0;" edge="1" parent="1" source="JLNntl-zKEBdCk4uTLD9-1" target="JLNntl-zKEBdCk4uTLD9-6">
          <mxGeometry relative="1" as="geometry">
            <Array as="points">
              <mxPoint x="220" y="300" />
              <mxPoint x="220" y="300" />
            </Array>
          </mxGeometry>
        </mxCell>
        <mxCell id="JLNntl-zKEBdCk4uTLD9-38" value="Login / &lt;br&gt;Authentication Valid" style="edgeLabel;html=1;align=center;verticalAlign=middle;resizable=0;points=[];" vertex="1" connectable="0" parent="JLNntl-zKEBdCk4uTLD9-24">
          <mxGeometry x="0.2" y="-1" relative="1" as="geometry">
            <mxPoint y="13" as="offset" />
          </mxGeometry>
        </mxCell>
        <mxCell id="JLNntl-zKEBdCk4uTLD9-46" style="edgeStyle=orthogonalEdgeStyle;rounded=0;orthogonalLoop=1;jettySize=auto;html=1;exitX=0.75;exitY=0;exitDx=0;exitDy=0;" edge="1" parent="1" source="JLNntl-zKEBdCk4uTLD9-1" target="JLNntl-zKEBdCk4uTLD9-26">
          <mxGeometry relative="1" as="geometry" />
        </mxCell>
        <mxCell id="JLNntl-zKEBdCk4uTLD9-47" value="Exit" style="edgeLabel;html=1;align=center;verticalAlign=middle;resizable=0;points=[];" vertex="1" connectable="0" parent="JLNntl-zKEBdCk4uTLD9-46">
          <mxGeometry x="-0.1355" y="-2" relative="1" as="geometry">
            <mxPoint x="13" y="-2" as="offset" />
          </mxGeometry>
        </mxCell>
        <mxCell id="JLNntl-zKEBdCk4uTLD9-1" value="Parent Login" style="rounded=1;whiteSpace=wrap;html=1;" vertex="1" parent="1">
          <mxGeometry x="190" y="210" width="120" height="60" as="geometry" />
        </mxCell>
        <mxCell id="JLNntl-zKEBdCk4uTLD9-43" style="edgeStyle=orthogonalEdgeStyle;rounded=0;orthogonalLoop=1;jettySize=auto;html=1;entryX=-0.006;entryY=0.625;entryDx=0;entryDy=0;entryPerimeter=0;" edge="1" parent="1" source="JLNntl-zKEBdCk4uTLD9-3" target="JLNntl-zKEBdCk4uTLD9-1">
          <mxGeometry relative="1" as="geometry">
            <mxPoint x="80" y="250" as="targetPoint" />
            <Array as="points">
              <mxPoint x="80" y="620" />
              <mxPoint x="80" y="248" />
            </Array>
          </mxGeometry>
        </mxCell>
        <mxCell id="JLNntl-zKEBdCk4uTLD9-3" value="Assessment" style="rounded=1;whiteSpace=wrap;html=1;fontStyle=1" vertex="1" parent="1">
          <mxGeometry x="190" y="590" width="120" height="60" as="geometry" />
        </mxCell>
        <mxCell id="JLNntl-zKEBdCk4uTLD9-36" style="edgeStyle=orthogonalEdgeStyle;rounded=0;orthogonalLoop=1;jettySize=auto;html=1;entryX=1;entryY=0.25;entryDx=0;entryDy=0;" edge="1" parent="1" source="JLNntl-zKEBdCk4uTLD9-4" target="JLNntl-zKEBdCk4uTLD9-14">
          <mxGeometry relative="1" as="geometry">
            <Array as="points">
              <mxPoint x="810" y="370" />
              <mxPoint x="810" y="175" />
            </Array>
          </mxGeometry>
        </mxCell>
        <mxCell id="JLNntl-zKEBdCk4uTLD9-37" value="Log Out / Signed out of account" style="edgeLabel;html=1;align=center;verticalAlign=middle;resizable=0;points=[];" vertex="1" connectable="0" parent="JLNntl-zKEBdCk4uTLD9-36">
          <mxGeometry x="0.1207" y="-2" relative="1" as="geometry">
            <mxPoint x="-102" y="65" as="offset" />
          </mxGeometry>
        </mxCell>
        <mxCell id="JLNntl-zKEBdCk4uTLD9-4" value="Clinician Dashboard" style="rounded=1;whiteSpace=wrap;html=1;fontStyle=1" vertex="1" parent="1">
          <mxGeometry x="500" y="340" width="120" height="60" as="geometry" />
        </mxCell>
        <mxCell id="JLNntl-zKEBdCk4uTLD9-23" style="edgeStyle=orthogonalEdgeStyle;rounded=0;orthogonalLoop=1;jettySize=auto;html=1;entryX=0.5;entryY=0;entryDx=0;entryDy=0;" edge="1" parent="1" source="JLNntl-zKEBdCk4uTLD9-6" target="JLNntl-zKEBdCk4uTLD9-3">
          <mxGeometry relative="1" as="geometry" />
        </mxCell>
        <mxCell id="JLNntl-zKEBdCk4uTLD9-45" value="Start" style="edgeLabel;html=1;align=center;verticalAlign=middle;resizable=0;points=[];" vertex="1" connectable="0" parent="JLNntl-zKEBdCk4uTLD9-23">
          <mxGeometry x="-0.1692" y="3" relative="1" as="geometry">
            <mxPoint x="-3" y="8" as="offset" />
          </mxGeometry>
        </mxCell>
        <mxCell id="JLNntl-zKEBdCk4uTLD9-41" style="edgeStyle=orthogonalEdgeStyle;rounded=0;orthogonalLoop=1;jettySize=auto;html=1;exitX=0;exitY=0.5;exitDx=0;exitDy=0;entryX=0;entryY=0.75;entryDx=0;entryDy=0;" edge="1" parent="1" source="JLNntl-zKEBdCk4uTLD9-6" target="JLNntl-zKEBdCk4uTLD9-1">
          <mxGeometry relative="1" as="geometry">
            <Array as="points">
              <mxPoint x="140" y="495" />
              <mxPoint x="140" y="255" />
            </Array>
          </mxGeometry>
        </mxCell>
        <mxCell id="JLNntl-zKEBdCk4uTLD9-6" value="Homepage" style="rounded=1;whiteSpace=wrap;html=1;" vertex="1" parent="1">
          <mxGeometry x="190" y="465" width="120" height="60" as="geometry" />
        </mxCell>
        <mxCell id="JLNntl-zKEBdCk4uTLD9-15" style="edgeStyle=orthogonalEdgeStyle;rounded=0;orthogonalLoop=1;jettySize=auto;html=1;entryX=0.5;entryY=0;entryDx=0;entryDy=0;" edge="1" parent="1" source="JLNntl-zKEBdCk4uTLD9-12" target="JLNntl-zKEBdCk4uTLD9-1">
          <mxGeometry relative="1" as="geometry">
            <Array as="points">
              <mxPoint x="440" y="170" />
              <mxPoint x="250" y="170" />
            </Array>
          </mxGeometry>
        </mxCell>
        <mxCell id="JLNntl-zKEBdCk4uTLD9-28" value="Parent" style="edgeLabel;html=1;align=center;verticalAlign=middle;resizable=0;points=[];" vertex="1" connectable="0" parent="JLNntl-zKEBdCk4uTLD9-15">
          <mxGeometry x="0.0667" relative="1" as="geometry">
            <mxPoint y="-1" as="offset" />
          </mxGeometry>
        </mxCell>
        <mxCell id="JLNntl-zKEBdCk4uTLD9-16" style="edgeStyle=orthogonalEdgeStyle;rounded=0;orthogonalLoop=1;jettySize=auto;html=1;exitX=0.5;exitY=1;exitDx=0;exitDy=0;entryX=0;entryY=0.167;entryDx=0;entryDy=0;entryPerimeter=0;" edge="1" parent="1" source="JLNntl-zKEBdCk4uTLD9-12" target="JLNntl-zKEBdCk4uTLD9-14">
          <mxGeometry relative="1" as="geometry">
            <mxPoint x="600" y="170" as="targetPoint" />
            <Array as="points">
              <mxPoint x="440" y="170" />
            </Array>
          </mxGeometry>
        </mxCell>
        <mxCell id="JLNntl-zKEBdCk4uTLD9-29" value="Clincian" style="edgeLabel;html=1;align=center;verticalAlign=middle;resizable=0;points=[];" vertex="1" connectable="0" parent="JLNntl-zKEBdCk4uTLD9-16">
          <mxGeometry x="-0.0035" relative="1" as="geometry">
            <mxPoint as="offset" />
          </mxGeometry>
        </mxCell>
        <mxCell id="JLNntl-zKEBdCk4uTLD9-12" value="Select Account Type" style="rounded=1;whiteSpace=wrap;html=1;" vertex="1" parent="1">
          <mxGeometry x="380" y="80" width="120" height="60" as="geometry" />
        </mxCell>
        <mxCell id="JLNntl-zKEBdCk4uTLD9-22" style="edgeStyle=orthogonalEdgeStyle;rounded=0;orthogonalLoop=1;jettySize=auto;html=1;exitX=0.5;exitY=1;exitDx=0;exitDy=0;entryX=0.5;entryY=0;entryDx=0;entryDy=0;" edge="1" parent="1" source="JLNntl-zKEBdCk4uTLD9-14" target="JLNntl-zKEBdCk4uTLD9-4">
          <mxGeometry relative="1" as="geometry">
            <Array as="points">
              <mxPoint x="680" y="240" />
              <mxPoint x="560" y="240" />
            </Array>
          </mxGeometry>
        </mxCell>
        <mxCell id="JLNntl-zKEBdCk4uTLD9-30" value="Login /&lt;br&gt;Authentication Valid" style="edgeLabel;html=1;align=center;verticalAlign=middle;resizable=0;points=[];" vertex="1" connectable="0" parent="JLNntl-zKEBdCk4uTLD9-22">
          <mxGeometry x="-0.181" y="1" relative="1" as="geometry">
            <mxPoint x="-42" y="39" as="offset" />
          </mxGeometry>
        </mxCell>
        <mxCell id="JLNntl-zKEBdCk4uTLD9-48" style="edgeStyle=orthogonalEdgeStyle;rounded=0;orthogonalLoop=1;jettySize=auto;html=1;entryX=1;entryY=0.5;entryDx=0;entryDy=0;" edge="1" parent="1" source="JLNntl-zKEBdCk4uTLD9-14" target="JLNntl-zKEBdCk4uTLD9-26">
          <mxGeometry relative="1" as="geometry" />
        </mxCell>
        <mxCell id="JLNntl-zKEBdCk4uTLD9-49" value="Exit" style="edgeLabel;html=1;align=center;verticalAlign=middle;resizable=0;points=[];" vertex="1" connectable="0" parent="JLNntl-zKEBdCk4uTLD9-48">
          <mxGeometry x="0.3789" y="1" relative="1" as="geometry">
            <mxPoint x="15" y="-1" as="offset" />
          </mxGeometry>
        </mxCell>
        <mxCell id="JLNntl-zKEBdCk4uTLD9-14" value="Clinician Login" style="rounded=1;whiteSpace=wrap;html=1;" vertex="1" parent="1">
          <mxGeometry x="620" y="160" width="120" height="60" as="geometry" />
        </mxCell>
        <mxCell id="JLNntl-zKEBdCk4uTLD9-20" style="edgeStyle=orthogonalEdgeStyle;rounded=0;orthogonalLoop=1;jettySize=auto;html=1;entryX=0.75;entryY=1;entryDx=0;entryDy=0;" edge="1" parent="1" source="JLNntl-zKEBdCk4uTLD9-17" target="JLNntl-zKEBdCk4uTLD9-1">
          <mxGeometry relative="1" as="geometry" />
        </mxCell>
        <mxCell id="JLNntl-zKEBdCk4uTLD9-35" value="Back [Account Created]&lt;br&gt;/ Account Created" style="edgeLabel;html=1;align=center;verticalAlign=middle;resizable=0;points=[];" vertex="1" connectable="0" parent="JLNntl-zKEBdCk4uTLD9-20">
          <mxGeometry x="0.3424" relative="1" as="geometry">
            <mxPoint x="10" y="-12" as="offset" />
          </mxGeometry>
        </mxCell>
        <mxCell id="JLNntl-zKEBdCk4uTLD9-17" value="Create Parent Account" style="rounded=1;whiteSpace=wrap;html=1;" vertex="1" parent="1">
          <mxGeometry x="340" y="310" width="120" height="60" as="geometry" />
        </mxCell>
        <mxCell id="JLNntl-zKEBdCk4uTLD9-19" style="edgeStyle=orthogonalEdgeStyle;rounded=0;orthogonalLoop=1;jettySize=auto;html=1;entryX=0.75;entryY=1;entryDx=0;entryDy=0;" edge="1" parent="1" source="JLNntl-zKEBdCk4uTLD9-17" target="JLNntl-zKEBdCk4uTLD9-17">
          <mxGeometry relative="1" as="geometry">
            <Array as="points">
              <mxPoint x="460" y="410" />
              <mxPoint x="430" y="410" />
            </Array>
          </mxGeometry>
        </mxCell>
        <mxCell id="JLNntl-zKEBdCk4uTLD9-34" value="Invalid &lt;br&gt;Credentials" style="edgeLabel;html=1;align=center;verticalAlign=middle;resizable=0;points=[];" vertex="1" connectable="0" parent="JLNntl-zKEBdCk4uTLD9-19">
          <mxGeometry x="0.2667" y="3" relative="1" as="geometry">
            <mxPoint x="43" as="offset" />
          </mxGeometry>
        </mxCell>
        <mxCell id="JLNntl-zKEBdCk4uTLD9-27" value="" style="edgeStyle=orthogonalEdgeStyle;rounded=0;orthogonalLoop=1;jettySize=auto;html=1;" edge="1" parent="1" source="JLNntl-zKEBdCk4uTLD9-25" target="JLNntl-zKEBdCk4uTLD9-12">
          <mxGeometry relative="1" as="geometry" />
        </mxCell>
        <mxCell id="JLNntl-zKEBdCk4uTLD9-25" value="" style="shape=image;html=1;verticalAlign=top;verticalLabelPosition=bottom;labelBackgroundColor=#ffffff;imageAspect=0;aspect=fixed;image=https://cdn4.iconfinder.com/data/icons/essential-app-2/16/record-round-circle-dot-128.png" vertex="1" parent="1">
          <mxGeometry x="425" y="20" width="30" height="30" as="geometry" />
        </mxCell>
        <mxCell id="JLNntl-zKEBdCk4uTLD9-26" value="" style="shape=image;html=1;verticalAlign=top;verticalLabelPosition=bottom;labelBackgroundColor=#ffffff;imageAspect=0;aspect=fixed;image=https://cdn4.iconfinder.com/data/icons/ionicons/512/icon-ios7-circle-filled-128.png" vertex="1" parent="1">
          <mxGeometry x="420" y="170" width="40" height="40" as="geometry" />
        </mxCell>
        <mxCell id="JLNntl-zKEBdCk4uTLD9-31" style="edgeStyle=orthogonalEdgeStyle;rounded=0;orthogonalLoop=1;jettySize=auto;html=1;exitX=0.75;exitY=1;exitDx=0;exitDy=0;entryX=1.021;entryY=0.664;entryDx=0;entryDy=0;entryPerimeter=0;" edge="1" parent="1" source="JLNntl-zKEBdCk4uTLD9-14" target="JLNntl-zKEBdCk4uTLD9-14">
          <mxGeometry relative="1" as="geometry">
            <mxPoint x="760" y="200" as="targetPoint" />
            <Array as="points">
              <mxPoint x="710" y="240" />
              <mxPoint x="780" y="240" />
              <mxPoint x="780" y="200" />
            </Array>
          </mxGeometry>
        </mxCell>
        <mxCell id="JLNntl-zKEBdCk4uTLD9-32" value="Invalid&lt;br&gt;Credentials" style="edgeLabel;html=1;align=center;verticalAlign=middle;resizable=0;points=[];" vertex="1" connectable="0" parent="JLNntl-zKEBdCk4uTLD9-31">
          <mxGeometry y="-2" relative="1" as="geometry">
            <mxPoint x="-4" y="-2" as="offset" />
          </mxGeometry>
        </mxCell>
        <mxCell id="JLNntl-zKEBdCk4uTLD9-39" style="edgeStyle=orthogonalEdgeStyle;rounded=0;orthogonalLoop=1;jettySize=auto;html=1;entryX=0;entryY=0.5;entryDx=0;entryDy=0;" edge="1" parent="1" source="JLNntl-zKEBdCk4uTLD9-1" target="JLNntl-zKEBdCk4uTLD9-1">
          <mxGeometry relative="1" as="geometry">
            <Array as="points">
              <mxPoint x="230" y="190" />
              <mxPoint x="150" y="190" />
              <mxPoint x="150" y="240" />
            </Array>
          </mxGeometry>
        </mxCell>
        <mxCell id="JLNntl-zKEBdCk4uTLD9-40" value="Invalid &lt;br&gt;Credentials" style="edgeLabel;html=1;align=center;verticalAlign=middle;resizable=0;points=[];" vertex="1" connectable="0" parent="1">
          <mxGeometry x="159.99666666666673" y="189.9999999999999" as="geometry">
            <mxPoint x="-16" y="-3" as="offset" />
          </mxGeometry>
        </mxCell>
        <mxCell id="JLNntl-zKEBdCk4uTLD9-42" value="Log Out / &lt;br&gt;Signed out of account" style="edgeLabel;html=1;align=center;verticalAlign=middle;resizable=0;points=[];" vertex="1" connectable="0" parent="1">
          <mxGeometry x="140.00000000000023" y="359.9966666666669" as="geometry" />
        </mxCell>
        <mxCell id="JLNntl-zKEBdCk4uTLD9-44" value="Log Out &lt;br&gt;/ Signed out of account" style="edgeLabel;html=1;align=center;verticalAlign=middle;resizable=0;points=[];" vertex="1" connectable="0" parent="1">
          <mxGeometry x="70.00000000000023" y="300.0024137931035" as="geometry" />
        </mxCell>
      </root>
    </mxGraphModel>
  </diagram>
</mxfile>
